<svg style="position: absolute; width: 0; height: 0; overflow: hidden;" version="1.1" xmlns="http://www.w3.org/2000/svg" xmlns:xlink="http://www.w3.org/1999/xlink">
 <defs>
   <symbol id="email" viewBox="0 0 32 32">
   <title>email</title>
      <path d="M29 4h-26c-1.65 0-3 1.35-3 3v20c0 1.65 1.35 3 3 3h26c1.65 0 3-1.35 3-3v-20c0-1.65-1.35-3-3-3zM12.461 17.199l-8.461 6.59v-15.676l8.461 9.086zM5.512 8h20.976l-10.488 7.875-10.488-7.875zM12.79 17.553l3.21 3.447 3.21-3.447 6.58 8.447h-19.579l6.58-8.447zM19.539 17.199l8.461-9.086v15.676l-8.461-6.59z"></path>
   </symbol>
   <symbol id="phone" viewBox="0 0 32 32">
   <title>phone</title>
     <g>
      <path d="M22 20c-2 2-2 4-4 4s-4-2-6-4-4-4-4-6 2-2 4-4-4-8-6-8-6 6-6 6c0 4 4.109 12.109 8 16s12 8 16 8c0 0 6-4 6-6s-6-8-8-6z"></path>
     </g>
   </symbol>
   <symbol id='github' viewBox="0 0 32 32">
      <title>github</title>
      <path d="M16 0.395c-8.836 0-16 7.163-16 16 0 7.069 4.585 13.067 10.942 15.182 0.8 0.148 1.094-0.347 1.094-0.77 0-0.381-0.015-1.642-0.022-2.979-4.452 0.968-5.391-1.888-5.391-1.888-0.728-1.849-1.776-2.341-1.776-2.341-1.452-0.993 0.11-0.973 0.11-0.973 1.606 0.113 2.452 1.649 2.452 1.649 1.427 2.446 3.743 1.739 4.656 1.33 0.143-1.034 0.558-1.74 1.016-2.14-3.554-0.404-7.29-1.777-7.29-7.907 0-1.747 0.625-3.174 1.649-4.295-0.166-0.403-0.714-2.030 0.155-4.234 0 0 1.344-0.43 4.401 1.64 1.276-0.355 2.645-0.532 4.005-0.539 1.359 0.006 2.729 0.184 4.008 0.539 3.054-2.070 4.395-1.64 4.395-1.64 0.871 2.204 0.323 3.831 0.157 4.234 1.026 1.12 1.647 2.548 1.647 4.295 0 6.145-3.743 7.498-7.306 7.895 0.574 0.497 1.085 1.47 1.085 2.963 0 2.141-0.019 3.864-0.019 4.391 0 0.426 0.288 0.925 1.099 0.768 6.354-2.118 10.933-8.113 10.933-15.18 0-8.837-7.164-16-16-16z"></path>
   </symbol>
   <symbol id='codepen' viewBox="0 0 32 32">
      <title>codepen</title>
      <path d="M29.555 11.501l-14-9.333c-0.336-0.224-0.774-0.224-1.109 0l-14 9.333c-0.278 0.185-0.445 0.498-0.445 0.832v9.333c0 0.334 0.167 0.647 0.445 0.832l14 9.333c0.168 0.112 0.361 0.168 0.555 0.168s0.387-0.056 0.555-0.168l14-9.333c0.278-0.185 0.445-0.498 0.445-0.832v-9.333c0-0.334-0.167-0.647-0.445-0.832zM15 20.465l-5.197-3.465 5.197-3.465 5.197 3.465-5.197 3.465zM16 11.798v-6.93l11.197 7.465-5.197 3.465-6-4zM14 11.798l-6 4-5.197-3.465 11.197-7.465v6.93zM6.197 17l-4.197 2.798v-5.596l4.197 2.798zM8 18.202l6 4v6.93l-11.197-7.465 5.197-3.465zM16 22.202l6-4 5.197 3.465-11.197 7.465v-6.93zM23.803 17l4.197-2.798v5.596l-4.197-2.798z"></path>
   </symbol>
   <symbol id='codefights' viewBox="0 0 24 24">
      <title>codefights</title>
      <path d="M12 15.2L9.2 4.8 0 3.2l1.7 2.6 5.7.7.7 2.3-3.7-.4 1.3 2 3 .3L12 20.8l3.3-10.1 3-.3 1.3-2-3.7.4.7-2.3 5.7-.7L24 3.2l-9.2 1.6"></path>
   </symbol>
   <symbol id="codewars" viewBox="0 0 32 32">
    <title>codewars</title>
    <path d="M1.013 16.267l-0.107-0.053c-0.24-0.133-0.427-0.333-0.56-0.587-0.187-0.347-0.267-0.667-0.267-1l0.027-0.173c0-0.267 0.067-0.507 0.187-0.733l0.107-0.2c0.053-0.107 0.133-0.2 0.2-0.293 0.080-0.093 0.093-0.213 0.067-0.32l-0.067-0.213c-0.080-0.267-0.133-0.533-0.133-0.8l-0.040-0.16c0-0.293 0.080-0.587 0.267-0.8l0.133-0.173c0.093-0.133 0.24-0.213 0.4-0.267 0.133-0.040 0.227-0.173 0.24-0.333l0.027-0.453c0-0.36 0.173-0.693 0.44-0.933l0.32-0.24c0.067-0.067 0.133-0.133 0.187-0.24 0.067-0.080 0.080-0.187 0.067-0.267-0.027-0.133 0-0.173 0.067-0.187 0.213 0.080 0.347 0.053 0.44-0.053l0.173-0.227 0.48-0.533c0.133-0.133 0.187-0.373 0.107-0.56l-0.16-0.347c-0.027-0.080 0-0.173 0.067-0.2 0.173 0 0.293 0.067 0.347 0.173l0.053 0.093c0.080 0.16 0.267 0.24 0.4 0.173 0.293-0.107 0.533-0.133 0.76-0.133h0.427c0.293 0 0.533-0.2 0.587-0.507 0.053-0.373 0.187-0.667 0.373-0.867 0.2-0.227 0.427-0.4 0.693-0.533 0.347-0.187 0.56-0.453 0.627-0.8 0.093-0.427 0.32-0.733 0.627-0.933l1.013-0.573 0.293-0.173c0.173-0.107 0.333-0.24 0.467-0.4l0.267-0.32c0.133-0.133 0.267-0.227 0.427-0.267 0.133-0.040 0.32-0.067 0.48-0.053l0.533 0.040c0.267 0 0.48 0.067 0.693 0.16l0.133 0.067c0.133 0.053 0.267 0.027 0.333-0.067l0.12-0.067 0.573-0.6c0.133-0.133 0.293-0.187 0.467-0.16s0.347 0.093 0.507 0.173c0.24 0.133 0.44 0.187 0.667 0.187h0.133c0.293 0 0.587 0.040 0.88 0.107l0.2 0.053c0.2 0.053 0.4-0.027 0.533-0.187 0.040-0.067 0.133-0.080 0.187-0.027 0.040 0.027 0.053 0.053 0.067 0.093 0.027 0.267 0.187 0.467 0.4 0.533l0.213 0.067c0.227 0.067 0.427 0.213 0.56 0.4 0.133 0.2 0.293 0.4 0.48 0.533l0.133 0.133c0.133 0.133 0.32 0.187 0.507 0.173h0.787c0.32 0 0.627 0.053 0.933 0.187 0.293 0.133 0.6 0.16 0.88 0.053 0.293-0.093 0.6-0.133 0.907-0.093l0.573 0.093c0.267 0.027 0.533 0.16 0.693 0.36l0.067 0.067c0.133 0.133 0.267 0.307 0.4 0.493 0.080 0.173 0.267 0.267 0.453 0.267h0.827c0.2 0 0.4 0.040 0.56 0.133 0.173 0.133 0.32 0.267 0.453 0.4l0.133 0.173c0.16 0.187 0.24 0.44 0.227 0.707 0 0.213 0.16 0.4 0.373 0.4l0.267 0.027c0.187 0 0.347 0.133 0.44 0.307l0.133 0.267 0.347 0.773c0.053 0.133 0.067 0.267 0.053 0.373 0 0.133 0.040 0.24 0.133 0.293l0.133 0.093c0.173 0.133 0.267 0.333 0.24 0.56l-0.093 0.627-0.027 0.267c-0.027 0.133 0.040 0.307 0.16 0.4 0.2 0.133 0.293 0.307 0.307 0.507v0.267c0 0.133-0.027 0.293-0.133 0.4-0.080 0.107-0.133 0.24-0.133 0.4l0.040 0.307c0 0.213 0.133 0.4 0.267 0.533 0.187 0.133 0.293 0.347 0.32 0.56 0.053 0.333 0.067 0.6 0.067 0.867v0.307c0 0.107 0 0.213 0.040 0.32 0.027 0.093 0.093 0.187 0.173 0.24l0.267 0.2c0.267 0.173 0.453 0.4 0.56 0.707 0.133 0.293 0.173 0.6 0.173 0.907v0.107c0 0.24-0.027 0.493-0.107 0.72-0.067 0.24-0.053 0.467 0.040 0.667 0.107 0.187 0.173 0.4 0.2 0.627 0.053 0.267 0.027 0.533-0.067 0.747l-0.027 0.093c-0.067 0.16-0.173 0.307-0.307 0.427-0.133 0.133-0.267 0.213-0.347 0.307-0.080 0.080-0.133 0.213-0.093 0.333l0.040 0.187c0.067 0.267 0.067 0.533 0 0.773v0.107c-0.053 0.2-0.133 0.373-0.213 0.533-0.093 0.173-0.227 0.307-0.4 0.4l-0.2 0.133c-0.093 0.053-0.16 0.173-0.16 0.293 0 0.133-0.053 0.267-0.133 0.347l-0.2 0.267c-0.133 0.173-0.307 0.32-0.493 0.4-0.187 0.133-0.347 0.267-0.467 0.4-0.133 0.16-0.24 0.347-0.293 0.533-0.053 0.24-0.24 0.373-0.44 0.373h-0.72c-0.187 0-0.36 0.133-0.44 0.293-0.093 0.213-0.187 0.36-0.307 0.493-0.133 0.133-0.213 0.293-0.267 0.48-0.027 0.16-0.16 0.267-0.293 0.213-0.173-0.080-0.347 0-0.427 0.133-0.16 0.267-0.32 0.467-0.493 0.64l-0.093 0.080c-0.173 0.133-0.4 0.24-0.6 0.24-0.24 0-0.36 0.107-0.4 0.267-0.040 0.133-0.067 0.307-0.080 0.453-0.027 0.16-0.080 0.307-0.133 0.44l-0.067 0.080c-0.133 0.2-0.24 0.4-0.373 0.573l-0.053 0.080c-0.173 0.227-0.4 0.4-0.667 0.467-0.32 0.107-0.6 0.133-0.88 0.133h-0.187c-0.133 0-0.267 0.080-0.36 0.213l-0.080 0.133-0.080 0.16-0.173 0.293c-0.133 0.24-0.333 0.4-0.6 0.48-0.267 0.067-0.573 0.093-0.853 0.080l-0.213-0.027c-0.187 0-0.36-0.053-0.533-0.133-0.133-0.053-0.32 0-0.4 0.133-0.133 0.187-0.293 0.293-0.467 0.347l-0.4 0.133c-0.267 0.067-0.56 0.067-0.84 0l-0.213-0.067c-0.133 0-0.267-0.067-0.373-0.133-0.133-0.067-0.267-0.093-0.4-0.080l-0.173 0.027c-0.267 0.027-0.507 0-0.747-0.067l-0.36-0.080c-0.16-0.053-0.307-0.16-0.4-0.307-0.067-0.133-0.213-0.24-0.4-0.267h-0.427c-0.267-0.040-0.507-0.133-0.667-0.333l-0.533-0.507-0.187-0.16-0.293-0.213-0.173-0.133c-0.2-0.133-0.44-0.24-0.693-0.267l-0.8-0.133c-0.080 0-0.133-0.027-0.213-0.040l-0.307-0.067c-0.133-0.027-0.267-0.133-0.36-0.267-0.080-0.133-0.227-0.187-0.36-0.133-0.267 0.107-0.48 0.133-0.693 0.173h-0.187c-0.347 0.027-0.667-0.027-0.987-0.173-0.32-0.133-0.533-0.333-0.733-0.587-0.16-0.227-0.4-0.4-0.693-0.453l-0.373-0.080c-0.267-0.053-0.533-0.16-0.773-0.32-0.267-0.187-0.4-0.36-0.507-0.573-0.107-0.2-0.173-0.427-0.187-0.667v-0.107c-0.027-0.267-0.213-0.507-0.467-0.573-0.307-0.093-0.533-0.227-0.733-0.4-0.187-0.173-0.293-0.427-0.293-0.693l0.027-0.587c0-0.227-0.067-0.427-0.227-0.573-0.16-0.16-0.267-0.36-0.267-0.573l-0.040-0.48c-0.027-0.347-0.093-0.693-0.173-1.040-0.080-0.307 0.040-0.613 0.293-0.76l0.093-0.067c0.133-0.093 0.187-0.267 0.107-0.427l-0.107-0.133c-0.133-0.133-0.267-0.227-0.4-0.267-0.107-0.027-0.133-0.133-0.133-0.2l0.133-0.16c0.080-0.093 0.067-0.24 0-0.32-0.107-0.107-0.16-0.24-0.173-0.373l-0.027-0.933c0-0.187 0.027-0.373 0.080-0.56 0.053-0.16 0-0.347-0.16-0.427zM14.213 14.507c0.093-0.093 0.080-0.267 0-0.333-0.133-0.107-0.227-0.227-0.307-0.36l-0.133-0.213c-0.093-0.173-0.213-0.32-0.347-0.453l-0.027-0.027c-0.133-0.107-0.227-0.24-0.307-0.4-0.067-0.133-0.067-0.267 0-0.4l0.080-0.133c0.080-0.133 0.133-0.32 0.133-0.48v-0.053c0-0.133-0.053-0.267-0.133-0.4-0.053-0.107-0.107-0.24-0.133-0.373v-0.080c-0.040-0.16 0-0.333 0.107-0.467 0.107-0.173 0.187-0.333 0.227-0.533v-0.027c0.053-0.133 0.027-0.307-0.053-0.44s-0.107-0.267-0.053-0.427l0.093-0.267c0.080-0.24 0.2-0.453 0.36-0.64l0.187-0.2 0.133-0.16 0.080-0.080c0.080-0.080 0.093-0.213 0.027-0.32-0.067-0.133-0.107-0.267-0.080-0.4l0.027-0.187c0.040-0.267 0.133-0.533 0.307-0.747l0.053-0.053c0.2-0.267 0.453-0.44 0.747-0.533l0.36-0.133c0.16-0.053 0.267-0.227 0.267-0.4 0-0.213 0.067-0.4 0.187-0.573l0.067-0.067c0.133-0.227 0.293-0.453 0.4-0.693l0.093-0.173c0.027-0.040 0.040-0.093 0.040-0.133 0-0.227-0.133-0.427-0.347-0.44l-0.587-0.040c-0.333-0.027-0.667 0-0.987 0l-1.133 0.133c-0.173 0-0.307 0.133-0.32 0.32 0 0.187-0.133 0.347-0.293 0.4l-0.48 0.133-0.133 0.040-0.4 0.133c-0.293 0.093-0.533 0.307-0.667 0.6l-0.107 0.173c-0.133 0.293-0.36 0.533-0.64 0.707-0.267 0.173-0.4 0.453-0.427 0.773v0.133c-0.027 0.267-0.107 0.533-0.267 0.72l-0.067 0.107c-0.107 0.133-0.133 0.307-0.067 0.453 0.067 0.16 0.107 0.333 0.093 0.507v0.707c0 0.187-0.133 0.347-0.267 0.4-0.187 0.067-0.307 0.213-0.36 0.4l-0.067 0.267c-0.053 0.267 0.040 0.533 0.267 0.693 0.213 0.16 0.347 0.4 0.4 0.693v0.24c0.040 0.267 0.187 0.533 0.427 0.667 0.24 0.16 0.427 0.4 0.533 0.667l0.067 0.213c0.107 0.293 0.347 0.467 0.613 0.493h0.080c0.24 0 0.453 0.133 0.587 0.347s0.347 0.36 0.587 0.4l0.373 0.107c0.227 0.067 0.44 0.187 0.613 0.36l0.027 0.027c0.133 0.107 0.347 0.093 0.467-0.053l0.093-0.107zM15.733 13.28c0.133 0.080 0.267 0.040 0.32-0.080l0.040-0.067c0.093-0.187 0.213-0.373 0.347-0.533l0.267-0.4c0.040 0 0.053-0.027 0.067-0.053l0.32-0.427c0.133-0.133 0.293-0.227 0.48-0.227 0.173 0 0.32-0.093 0.4-0.267 0.053-0.187 0.133-0.36 0.293-0.507l0.067-0.080c0.133-0.133 0.267-0.2 0.4-0.267 0.173-0.027 0.333-0.053 0.493-0.053h0.4c0.16 0 0.293-0.067 0.373-0.2s0.2-0.227 0.333-0.293l0.133-0.053c0.213-0.093 0.453-0.16 0.693-0.187l0.267-0.027c0.16 0 0.333 0 0.493 0.093 0.133 0.093 0.307 0.080 0.44-0.027l0.093-0.053c0.2-0.133 0.427-0.24 0.667-0.267h0.027c0.267-0.053 0.507-0.053 0.773-0.040h0.133c0.267 0.040 0.493 0.133 0.667 0.333l0.040 0.053c0.133 0.133 0.347 0.24 0.533 0.24h0.227c0.067 0 0.133-0.027 0.173-0.093 0.040-0.040 0.107-0.080 0.173-0.080h0.133c0.187 0 0.36 0.053 0.533 0.107l0.227 0.093c0.213 0.067 0.44 0.133 0.667 0.16h0.16c0.107 0 0.173-0.067 0.173-0.16 0-0.133-0.027-0.267-0.093-0.373l-0.093-0.213c-0.107-0.173-0.187-0.36-0.267-0.533l-0.027-0.067c-0.067-0.133-0.067-0.267 0-0.4v-0.067c0.027-0.107-0.027-0.227-0.133-0.267h-0.107c-0.213-0.067-0.4-0.187-0.533-0.36l-0.133-0.133c-0.133-0.133-0.213-0.333-0.267-0.533-0.067-0.173-0.213-0.307-0.4-0.307h-0.56c-0.2-0.027-0.373-0.133-0.493-0.293l-0.053-0.067c-0.093-0.133-0.173-0.293-0.227-0.453-0.067-0.133-0.213-0.213-0.347-0.173l-0.16 0.053c-0.267 0.093-0.533 0.133-0.8 0.107l-0.213-0.027c-0.227 0-0.44-0.093-0.613-0.227l-0.133-0.093c-0.107-0.080-0.213-0.133-0.333-0.187-0.133-0.053-0.24-0.027-0.32 0.067l-0.067 0.080c-0.133 0.133-0.32 0.24-0.507 0.267l-0.72 0.040c-0.133 0-0.267 0.067-0.36 0.16-0.107 0.093-0.227 0.16-0.36 0.187h-0.027c-0.133 0-0.267 0.093-0.4 0.187v0.027c-0.133 0.133-0.307 0.2-0.48 0.2l-0.053 0.027c-0.16 0-0.32 0-0.48 0.040h-0.16c-0.227 0.040-0.4 0.227-0.453 0.467l-0.053 0.307c-0.040 0.213-0.133 0.4-0.267 0.573-0.133 0.16-0.293 0.267-0.493 0.267h-0.227c-0.133 0.027-0.267 0.173-0.24 0.333 0.027 0.227 0 0.427-0.040 0.627l-0.053 0.227c-0.053 0.2-0.187 0.36-0.36 0.427l-0.080 0.040h-0.027c-0.080 0.053-0.133 0.173-0.067 0.267 0.080 0.133 0.107 0.267 0.093 0.4l-0.040 0.427c0 0.16-0.067 0.307-0.133 0.44-0.080 0.133-0.080 0.267-0.027 0.4l0.133 0.293c0.067 0.133 0.080 0.267 0.040 0.427-0.040 0.133-0.067 0.267-0.053 0.4 0 0.133 0.080 0.267 0.187 0.32l0.027 0.027zM26.267 22.92c0.133 0.133 0.333 0.187 0.493 0.080l0.267-0.173c0.133-0.093 0.24-0.227 0.293-0.4v-0.027l0.133-0.4 0.080-0.133 0.053-0.133 0.053-0.093c0.053-0.107 0.133-0.187 0.267-0.227l0.053-0.027c0.107-0.027 0.173-0.133 0.173-0.24 0-0.133 0.067-0.24 0.133-0.333l0.107-0.093 0.267-0.347v-0.027c0.080-0.107 0.133-0.227 0.16-0.36s0-0.267-0.053-0.4l-0.027-0.053c-0.053-0.133-0.080-0.227-0.093-0.347l-0.040-0.373-0.040-0.4c0-0.133 0.053-0.267 0.133-0.4 0.093-0.107 0.16-0.24 0.213-0.373v-0.053l0.027-0.027c0.027-0.133-0.040-0.267-0.16-0.267-0.133-0.067-0.267-0.173-0.307-0.333l-0.040-0.080c-0.067-0.24-0.107-0.48-0.107-0.72l0.027-0.667v-0.040c0-0.227-0.187-0.4-0.4-0.4h-0.027c-0.267 0-0.48-0.080-0.667-0.267l-0.107-0.133-0.267-0.307-0.347-0.4c-0.133-0.187-0.267-0.347-0.44-0.507-0.133-0.133-0.333-0.267-0.533-0.293l-0.267-0.040c-0.133-0.027-0.307-0.093-0.453-0.187-0.107-0.080-0.267-0.053-0.373 0.053l-0.173 0.187-0.080 0.053c-0.093 0.027-0.187-0.027-0.227-0.133-0.053-0.16-0.053-0.347 0.027-0.507v-0.080c0-0.093-0.080-0.16-0.16-0.133h-0.213c-0.24 0-0.48-0.027-0.707-0.133l-0.133-0.053c-0.133-0.067-0.293-0.107-0.44-0.107-0.133 0-0.267 0.027-0.4 0.107l-0.053 0.040c-0.16 0.107-0.347 0.16-0.533 0.173h-0.44c-0.2 0-0.4 0.067-0.533 0.173-0.173 0.107-0.36 0.173-0.56 0.213l-0.36 0.053c-0.16 0.040-0.333 0.107-0.48 0.227-0.133 0.133-0.32 0.213-0.493 0.267l-0.067 0.027c-0.213 0.067-0.4 0.2-0.533 0.4l-0.16 0.16c-0.093 0.133-0.093 0.293 0 0.427 0.080 0.133 0.24 0.173 0.4 0.133l0.2-0.080c0.107-0.040 0.227 0 0.32 0.053 0.080 0.067 0.2 0.107 0.32 0.093l0.333-0.040c0.187 0 0.373 0 0.56 0.053 0.2 0.067 0.373 0.133 0.533 0.267s0.333 0.187 0.533 0.213c0.2 0.027 0.4 0.067 0.587 0.133l0.133 0.027c0.133 0.040 0.24 0.133 0.32 0.267 0.067 0.107 0.133 0.267 0.133 0.4v0.040c0 0.16 0.133 0.267 0.267 0.267h0.080c0.213 0 0.44 0.027 0.667 0.093l0.093 0.040c0.133 0.053 0.267 0.133 0.36 0.267 0.107 0.133 0.173 0.267 0.213 0.4l0.040 0.187c0.040 0.2 0.053 0.4 0.053 0.613v0.067c0 0.133 0.093 0.267 0.24 0.32 0.133 0.027 0.293 0.080 0.44 0.16l0.067 0.027c0.173 0.107 0.347 0.24 0.48 0.4l0.067 0.093c0.173 0.2 0.267 0.453 0.267 0.707v0.093c0 0.2-0.040 0.4-0.107 0.587-0.053 0.16 0 0.347 0.173 0.4l0.093 0.067c0.2 0.080 0.373 0.227 0.507 0.4 0.133 0.2 0.187 0.427 0.187 0.667v0.4c-0.027 0.133-0.067 0.24-0.133 0.333s-0.067 0.227 0 0.32l0.080 0.133zM17.733 16.093h-0.027c-0.053 0-0.080 0.067-0.067 0.133l0.053 0.267c0.053 0.213 0.080 0.427 0.107 0.64s0.133 0.4 0.293 0.533h0.053c0.2 0.16 0.32 0.4 0.333 0.64v0.667c-0.027 0.133 0 0.267 0.080 0.373l0.067 0.067c0.133 0.16 0.187 0.347 0.2 0.533l0.040 0.733c0 0.173-0.107 0.32-0.267 0.347l-0.133 0.027c-0.093 0-0.133 0.107-0.133 0.2 0 0.107 0.040 0.227 0.080 0.333v0.027c0.040 0.133 0.053 0.267 0.040 0.4l-0.053 0.36c-0.053 0.267-0.133 0.507-0.267 0.747l-0.093 0.16c-0.067 0.133-0.16 0.213-0.267 0.267-0.133 0.053-0.227 0.16-0.267 0.293l-0.107 0.48c-0.067 0.267-0.187 0.533-0.347 0.8h-0.027c-0.16 0.213-0.36 0.4-0.6 0.533l-0.16 0.107-0.4 0.2c-0.133 0.053-0.213 0.173-0.24 0.32l-0.067 0.44c-0.040 0.267-0.133 0.493-0.32 0.667l-0.173 0.2-0.2 0.2-0.2 0.213c-0.16 0.187-0.4 0.267-0.667 0.227l-0.48-0.093-0.44-0.053h-0.12c-0.053 0.053-0.067 0.133-0.027 0.213 0.093 0.16 0.24 0.267 0.4 0.267l0.293 0.053c0.133 0 0.293 0.067 0.427 0.133 0.133 0.093 0.267 0.16 0.427 0.2h0.027c0.173 0.067 0.36 0.080 0.533 0.067l0.2-0.027c0.227-0.027 0.44 0 0.627 0.080l0.16 0.053c0.067 0.027 0.173 0 0.24-0.067 0.080-0.080 0.16-0.133 0.267-0.173l0.107-0.027c0.173-0.053 0.347-0.080 0.533-0.080h0.107c0.16 0 0.307 0.027 0.44 0.107l0.053 0.027c0.093 0.040 0.2 0 0.267-0.080 0.040-0.093 0.133-0.187 0.227-0.267l0.333-0.227 0.32-0.2c0.133-0.093 0.32-0.133 0.48-0.133l0.48-0.040c0.187-0.027 0.347-0.16 0.4-0.347 0.053-0.2 0.133-0.4 0.267-0.573s0.267-0.32 0.4-0.453c0.173-0.133 0.347-0.2 0.533-0.213h0.107c0.213-0.040 0.373-0.24 0.36-0.453v-0.893c0.027-0.133 0.080-0.307 0.16-0.44l0.267-0.4 0.107-0.133c0.080-0.067 0.133-0.16 0.227-0.267l0.133-0.173c0.080-0.133 0.080-0.307-0.027-0.427-0.133-0.133-0.2-0.32-0.227-0.507v-0.053c-0.027-0.213-0.027-0.44 0.040-0.667v-0.067c0.067-0.173 0.16-0.347 0.267-0.507 0.107-0.133 0.093-0.32-0.040-0.427l-0.227-0.2c-0.187-0.16-0.293-0.4-0.32-0.64l-0.027-0.267c0-0.080 0-0.173-0.027-0.267l-0.027-0.2c-0.027-0.227-0.16-0.4-0.347-0.533l-0.093-0.027c-0.133-0.080-0.267-0.2-0.373-0.36-0.107-0.133-0.16-0.32-0.2-0.507l-0.040-0.227c0-0.080-0.053-0.133-0.133-0.173l-0.64-0.2c-0.133-0.027-0.267-0.133-0.36-0.227h-0.027c-0.080-0.107-0.213-0.107-0.293-0.027l-0.133 0.133c-0.027 0.040-0.053 0.053-0.093 0.040-0.080 0-0.133-0.067-0.107-0.133 0.027-0.213-0.053-0.427-0.227-0.56l-0.173-0.133-0.4-0.267c-0.107-0.040-0.267 0-0.32 0.133l-0.053 0.080c0 0.027-0.040 0.040-0.053 0.053-0.053 0-0.133 0-0.133-0.067l-0.040-0.067c-0.040-0.080-0.133-0.133-0.213-0.16zM16.133 17.427l-0.067-0.067c-0.067-0.053-0.133-0.040-0.2 0.027-0.093 0.16-0.173 0.333-0.213 0.507v0.027c-0.040 0.173-0.2 0.293-0.36 0.267h-0.16c-0.187 0-0.333 0.16-0.333 0.347 0 0.24-0.080 0.48-0.227 0.667l-0.080 0.080c-0.133 0.173-0.333 0.293-0.533 0.36l-0.107 0.027c-0.133 0.040-0.24 0.133-0.267 0.293 0 0.133-0.080 0.267-0.187 0.373l-0.133 0.107c-0.16 0.173-0.4 0.267-0.64 0.293l-0.667 0.067c-0.213 0-0.4 0.133-0.533 0.333s-0.333 0.333-0.533 0.36l-0.293 0.027c-0.213 0.027-0.44 0.027-0.667-0.027l-0.133-0.027-0.36-0.093c-0.133-0.040-0.24 0-0.32 0.093l-0.133 0.173c-0.173 0.2-0.427 0.293-0.667 0.267l-0.867-0.107c-0.133 0-0.24-0.067-0.36-0.133-0.133-0.080-0.227-0.173-0.32-0.267l-0.333-0.4c-0.040-0.027-0.107-0.040-0.173-0.027l-0.187 0.080-0.747 0.187c-0.133 0.040-0.307 0-0.44-0.080-0.133-0.107-0.293-0.133-0.453-0.133h-0.173c-0.16 0.040-0.267 0.213-0.213 0.373l0.053 0.267c0.040 0.133 0.027 0.293-0.040 0.427s-0.053 0.267 0.040 0.4l0.080 0.107c0.107 0.16 0.267 0.293 0.4 0.427s0.267 0.267 0.373 0.44l0.2 0.36c0.107 0.187 0.267 0.293 0.48 0.293 0.2 0 0.4 0.067 0.56 0.2l0.4 0.373c0.107 0.093 0.267 0.107 0.373 0.027l0.067-0.027c0.080 0 0.133 0.053 0.133 0.133v0.067c0 0.173 0.133 0.333 0.307 0.4l0.6 0.133c0.213 0.067 0.427 0.133 0.627 0.267h0.107c0.107 0 0.2-0.093 0.187-0.213v-0.467c0-0.133 0.053-0.267 0.16-0.32l0.067-0.027c0.067 0.027 0.133 0.080 0.107 0.133v0.227c0 0.173 0.053 0.333 0.173 0.453 0.133 0.133 0.307 0.16 0.453 0.107 0.16-0.067 0.32-0.080 0.493-0.067l0.493 0.027c0.24 0.027 0.467 0 0.667-0.093 0.24-0.080 0.44-0.187 0.627-0.333l0.080-0.053 0.4-0.36c0.133-0.133 0.307-0.2 0.467-0.2h0.533c0.267-0.027 0.507-0.267 0.533-0.533l0.053-0.267c0-0.173 0.080-0.333 0.2-0.467 0.133-0.133 0.267-0.213 0.4-0.267l0.16-0.067c0.227-0.093 0.4-0.293 0.48-0.533l0.080-0.32c0.067-0.267 0.2-0.533 0.4-0.707l0.027-0.027c0.16-0.133 0.187-0.4 0.080-0.587l-0.040-0.093c-0.093-0.133-0.107-0.333-0.040-0.507 0.067-0.187 0.133-0.347 0.24-0.507l0.133-0.187c0.053-0.107 0.053-0.267-0.027-0.36-0.080-0.107-0.133-0.24-0.133-0.373l-0.027-0.187v-0.453c0.027-0.133 0-0.307-0.040-0.44l-0.053-0.16zM14.227 16.413v-0.040c0-0.133-0.080-0.213-0.187-0.213h-0.347c-0.133 0.027-0.267 0.027-0.373 0h-0.6c-0.307 0-0.6-0.053-0.893-0.133l-0.32-0.080-0.267-0.080-0.6-0.2c-0.32-0.093-0.56-0.307-0.707-0.6l-0.067-0.133c-0.093-0.2-0.293-0.307-0.493-0.267-0.227 0-0.453 0-0.667-0.107l-0.16-0.067c-0.307-0.133-0.533-0.4-0.533-0.76l-0.053-0.36c-0.040-0.187-0.16-0.36-0.32-0.427-0.187-0.080-0.36-0.187-0.533-0.307l-0.067-0.040c-0.2-0.16-0.373-0.373-0.467-0.627l-0.027-0.080c-0.067-0.213-0.080-0.44-0.027-0.667l0.027-0.080c0.053-0.173 0.067-0.347 0.067-0.533 0-0.16-0.067-0.32-0.187-0.44l-0.187-0.173c-0.213-0.173-0.347-0.427-0.36-0.707-0.027-0.293-0.027-0.573 0.027-0.853v-0.080c0-0.16-0.133-0.267-0.267-0.267h-0.040c-0.173 0-0.32 0.107-0.4 0.267-0.067 0.187-0.173 0.333-0.293 0.48l-0.053 0.067-0.4 0.4c-0.133 0.133-0.213 0.333-0.24 0.533s-0.080 0.4-0.16 0.587l-0.027 0.067c-0.067 0.16-0.173 0.307-0.307 0.4-0.133 0.107-0.227 0.267-0.227 0.427l-0.027 0.613c0 0.267-0.040 0.533-0.133 0.8l-0.027 0.107c-0.067 0.173 0 0.36 0.16 0.44l0.56 0.24 0.053 0.027c0.040 0 0.053 0.027 0.067 0.067 0.040 0.053 0 0.133-0.040 0.133l-0.133 0.067c-0.080 0.027-0.133 0.107-0.16 0.2l-0.027 0.133v0.027l-0.133 0.747c-0.027 0.107-0.027 0.227-0.027 0.347 0 0.107 0.067 0.2 0.16 0.24l0.293 0.133c0.133 0.080 0.293 0.173 0.4 0.267l0.133 0.107c0.040 0.053 0.107 0.107 0.16 0.133l0.053 0.053c0.093 0.080 0.16 0.187 0.187 0.307l0.133 0.6c0 0.16 0.133 0.293 0.267 0.333l0.213 0.067s0.040 0 0.067 0.027l0.267 0.080c0.213 0.067 0.4 0.187 0.56 0.347 0.16 0.133 0.32 0.307 0.453 0.493l0.053 0.053c0.107 0.133 0.267 0.2 0.427 0.16s0.333-0.053 0.507-0.053h0.2c0.133 0 0.307 0.040 0.453 0.133 0.133 0.080 0.307 0.133 0.467 0.2h0.040c0.16 0.067 0.333 0.040 0.467-0.053 0.133-0.107 0.307-0.16 0.48-0.16l0.627 0.040c0.133 0 0.267-0.027 0.333-0.133h0.027l0.227-0.213 0.067-0.067c0.107-0.133 0.267-0.187 0.427-0.2h0.6c0.16 0 0.307-0.133 0.373-0.267s0.2-0.24 0.36-0.267l0.267-0.053c0.107 0 0.2-0.093 0.24-0.213 0.040-0.133 0.107-0.24 0.2-0.32l0.213-0.213c0.133-0.133 0.2-0.267 0.227-0.427z"></path>
   </symbol>
   <symbol id="linkedin" viewBox="0 0 32 32">
    <title>linkedin</title>
    <path d="M12 12h5.535v2.837h0.079c0.77-1.381 2.655-2.837 5.464-2.837 5.842 0 6.922 3.637 6.922 8.367v9.633h-5.769v-8.54c0-2.037-0.042-4.657-3.001-4.657-3.005 0-3.463 2.218-3.463 4.509v8.688h-5.767v-18z"></path>
    <path d="M2 12h6v18h-6v-18z"></path>
    <path d="M8 7c0 1.657-1.343 3-3 3s-3-1.343-3-3c0-1.657 1.343-3 3-3s3 1.343 3 3z"></path>
   </symbol>
   <symbol id="freecodecamp" viewBox="0 0 32 32">
      <title>freecodecamp</title>
      <path d="M31.956 16.423c0 3.333-1.139 6.291-3.464 8.908-0.847 0.972-1.524 1.435-1.984 1.435-0.161 0-0.341-0.044-0.461-0.167-0.123-0.128-0.2-0.297-0.2-0.467 0-0.251 0.3-0.633 0.899-1.185 2.419-2.315 3.636-5.193 3.636-8.608 0-3.795-1.257-6.869-3.755-9.248-0.499-0.456-0.76-0.836-0.76-1.136 0-0.16 0.081-0.341 0.219-0.46 0.14-0.12 0.3-0.199 0.461-0.199 0.557 0 1.399 0.679 2.456 2.036 1.997 2.537 2.997 5.593 2.997 9.128l-0.044-0.037zM0 15.576c0-3.332 1.139-6.292 3.464-8.908 0.847-0.972 1.524-1.435 1.987-1.435 0.159 0 0.339 0.044 0.459 0.167 0.12 0.127 0.2 0.252 0.2 0.419 0 0.251-0.3 0.636-0.899 1.224-2.375 2.325-3.615 5.193-3.615 8.616 0 3.796 1.268 6.877 3.761 9.247 0.507 0.459 0.759 0.844 0.759 1.139 0 0.169-0.081 0.341-0.213 0.464-0.132 0.125-0.3 0.213-0.469 0.213-0.581 0-1.377-0.68-2.437-2.024-2.017-2.492-2.996-5.533-2.996-9.121zM23.599 24.735h-14.645c-0.467 0-0.891-0.383-0.891-0.888 0-0.511 0.38-0.891 0.891-0.891h14.645c0.464 0 0.891 0.38 0.891 0.891-0.008 0.513-0.383 0.888-0.891 0.888zM15.599 12.843c0.263-0.033 0.459 0.82 0.481 0.999 0.061 0.471-0.095 0.924-0.308 1.337-0.796 1.553-2.637 2.805-2.149 4.767 0.221 0.847 0.659 1.435 2.019 2.159-0.46 0.159-1.099-0.148-1.459-0.401-1.599-1.088-2.617-2.875-2.517-4.825 0.040-0.619 0.16-1.227 0.319-1.824 0.5-1.708 1.519-3.201 2.117-4.863 0.3-0.799 0.52-1.765 0.281-2.604-0.12-0.412-0.34-0.799-0.62-1.132-0.081-0.101-0.539-0.62-0.719-0.56 0.8-0.3 1.519-0.021 2.216 0.399 0.539 0.32 0.96 0.78 1.279 1.3 0.599 0.959 0.839 2.056 0.959 3.175 0.041 0.46-0.020 1.579 0.52 1.8 0.559 0.239 0.999-0.7 1.119-1.080 0.26-0.86-0.080-1.679-0.419-2.477 0.081 0.161 0.38 0.34 0.519 0.461l0.48 0.459c0.58 0.599 0.939 1.339 1.179 2.139 0.219 0.719 0.32 1.457 0.36 2.177 0.099 1.497-0.24 3.037-0.839 4.415-0.26 0.617-0.599 1.197-1.039 1.697-0.425 0.497-0.997 0.817-1.457 1.276 1.077-1.079 1.651-2.836 1.497-4.175-0.080-0.737-0.319-1.417-0.879-2.096 0 0 0.060 0.477 0.116 0.777 0.1 0.66-0.34 1.36-0.859 1.279-0.38-0.039-0.181-0.857-0.14-1.117 0.14-0.779-0.040-1.539-0.325-2.257-0.279-0.679-0.8-1.219-1.597-1.097l-0.135-0.105z"></path>
    </symbol>
 </defs>
</svg>